<?xml version="1.0" encoding="iso-8859-1"?>
<!DOCTYPE svg PUBLIC "-//W3C//DTD SVG 1.1//EN" "http://www.w3.org/Graphics/SVG/1.1/DTD/svg11.dtd">
<svg version="1.1" id="Layer_1" xmlns="http://www.w3.org/2000/svg" xmlns:xlink="http://www.w3.org/1999/xlink" x="0px" y="0px"
	 width="44px" height="64px" viewBox="0 0 44 64" style="enable-background:new 0 0 44 64;" xml:space="preserve">
<g id="Body_14_">
	<g>
		<path style="fill:#666666;" d="M32,0H12C9.791,0,8,1.791,8,4v56c0,2.209,1.791,4,4,4h20c2.209,0,4-1.791,4-4V4
			C36,1.791,34.209,0,32,0z"/>
	</g>
</g>
<g id="Tunnel_Visor">
	<g>
		<path style="fill-rule:evenodd;clip-rule:evenodd;fill:#333333;" d="M0,8c2.938,0,6,10,6,10h2V6H0V8z M0,26c2.938,0,6,10,6,10h2
			V24H0V26z M0,44c2.938,0,6,10,6,10h2V42H0V44z M36,6v12h2c0,0,3.063-10,6-10V6H36z M36,36h2c0,0,3.063-10,6-10v-2h-8V36z M36,54h2
			c0,0,3.063-10,6-10v-2h-8V54z"/>
	</g>
</g>
<g id="Green_6_">
	<g>
		<ellipse style="fill:#88C057;" cx="22" cy="49.982" rx="6" ry="6.006"/>
	</g>
</g>
<g id="Yellow_8_">
	<g>
		<ellipse style="fill:#FFCC66;" cx="22" cy="31.982" rx="6" ry="6.006"/>
	</g>
</g>
<g id="Red_27_">
	<g>
		<ellipse style="fill:#ED7161;" cx="22" cy="13.982" rx="6" ry="6.006"/>
	</g>
</g>
</svg>
