<?xml version="1.0" encoding="iso-8859-1"?>
<!-- Generator: Adobe Illustrator 16.0.0, SVG Export Plug-In . SVG Version: 6.00 Build 0)  -->
<!DOCTYPE svg PUBLIC "-//W3C//DTD SVG 1.1//EN" "http://www.w3.org/Graphics/SVG/1.1/DTD/svg11.dtd">
<svg version="1.1" id="Layer_1" xmlns="http://www.w3.org/2000/svg" xmlns:xlink="http://www.w3.org/1999/xlink" x="0px" y="0px"
	 width="64.009px" height="64.008px" viewBox="0 0 64.009 64.008" style="enable-background:new 0 0 64.009 64.008;"
	 xml:space="preserve">
<g id="Chain">
	<g>
		<path style="fill-rule:evenodd;clip-rule:evenodd;fill:#CCCCCC;" d="M30.054,38.057v-4.002h-4.002l-1.835-3.671
			c-4.183-1.007-8.772,0.107-12.037,3.372l-8.438,8.438c-4.99,4.99-4.99,13.081,0,18.071s13.081,4.99,18.072,0l8.438-8.438
			c3.25-3.25,4.369-7.813,3.386-11.979L30.054,38.057z M24.418,47.404l-7.027,7.028c-2.143,2.143-5.615,2.143-7.758,0
			s-2.143-5.616,0-7.758l7.027-7.028c2.143-2.143,5.616-2.143,7.758,0C26.561,41.789,26.561,45.262,24.418,47.404z M60.267,3.742
			c-4.99-4.99-13.082-4.99-18.072,0l-8.438,8.438c-3.582,3.581-4.578,8.756-3.019,13.239l1.316,2.633h4.002v4.003l2.198,1.099
			c4.558,1.729,9.903,0.769,13.574-2.902l8.438-8.438C65.257,16.822,65.257,8.732,60.267,3.742z M54.434,17.391l-7.028,7.027
			c-2.143,2.143-5.615,2.143-7.758,0s-2.143-5.615,0-7.758l7.027-7.028c2.143-2.143,5.616-2.143,7.759,0
			C56.576,11.774,56.576,15.248,54.434,17.391z"/>
	</g>
</g>
<g id="Link">
	<g>
		<path style="fill-rule:evenodd;clip-rule:evenodd;fill:#999999;" d="M30.054,34.055h-4.002l-0.874-1.748l-5.866,5.866
			c-1.8,1.799-1.8,4.717,0,6.517c1.799,1.799,4.717,1.799,6.517,0l5.83-5.83l-1.604-0.803V34.055z M44.69,19.311
			c-1.8-1.799-4.717-1.799-6.517,0l-6.992,6.993l0.874,1.748h4.002v4.003l1.604,0.802l7.029-7.029
			C46.49,24.027,46.49,21.11,44.69,19.311z"/>
	</g>
</g>
</svg>
