<?xml version="1.0" encoding="UTF-8" standalone="no"?>
<svg
    viewBox="0 0 24 23.629999"
    version="1.1"
    xmlns="http://www.w3.org/2000/svg">
    <path
        d="M 12,0 C 5.373,0 0,5.373 0,12 0,17.623 3.872,22.328 9.092,23.63 9.036,23.468 9,23.28 9,23.047 v -2.051 c -0.487,0 -1.303,0 -1.508,0 -0.821,0 -1.551,-0.353 -1.905,-1.009 C 5.194,19.258 5.126,18.143 4.152,17.461 3.863,17.234 4.083,16.975 4.416,17.01 c 0.615,0.174 1.125,0.596 1.605,1.222 0.478,0.627 0.703,0.769 1.596,0.769 0.433,0 1.081,-0.025 1.691,-0.121 0.328,-0.833 0.895,-1.6 1.588,-1.962 C 6.9,16.507 4.993,14.519 4.993,11.82 4.993,10.658 5.488,9.534 6.329,8.587 6.053,7.647 5.706,5.73 6.435,5 8.233,5 9.32,6.166 9.581,6.481 10.477,6.174 11.461,6 12.495,6 13.531,6 14.519,6.174 15.417,6.483 15.675,6.17 16.763,5 18.565,5 c 0.732,0.731 0.381,2.656 0.102,3.594 0.836,0.945 1.328,2.066 1.328,3.226 0,2.697 -1.904,4.684 -5.894,5.097 C 15.199,17.49 16,19.1 16,20.313 v 2.734 c 0,0.104 -0.023,0.179 -0.035,0.268 C 20.641,21.676 24,17.236 24,12 24,5.373 18.627,0 12,0 Z"
    />
</svg>
