<?xml version="1.0" encoding="iso-8859-1"?>
<!DOCTYPE svg PUBLIC "-//W3C//DTD SVG 1.1//EN" "http://www.w3.org/Graphics/SVG/1.1/DTD/svg11.dtd">
<svg version="1.1" id="Layer_1" xmlns="http://www.w3.org/2000/svg" xmlns:xlink="http://www.w3.org/1999/xlink" x="0px" y="0px"
	 width="60.001px" height="64.006px" viewBox="0 0 60.001 64.006" style="enable-background:new 0 0 60.001 64.006;"
	 xml:space="preserve">
<g id="Foose">
	<g>
		<path style="fill-rule:evenodd;clip-rule:evenodd;fill:#FFCC66;" d="M59.981,1.976c-0.01-0.873-0.587-1.67-1.471-1.908
			c-1.064-0.285-2.158,0.348-2.443,1.413c-0.047,0.175-0.061,0.35-0.06,0.522C56.006,2.005,56,2.005,56,2.006c0,7.708-12,14-12,14
			l4,2c0,0,12-5.513,12-16C60.003,1.995,59.989,1.986,59.981,1.976z"/>
	</g>
</g>
<g id="Nose_3_">
	<g>
		<path style="fill:#333333;" d="M53.426,18.625L45.32,10.52c-0.745-0.746-1.955-0.746-2.701,0l-8.105,8.105
			c-0.746,0.746-0.746,1.956,0,2.701l8.105,8.105c0.746,0.746,1.956,0.746,2.701,0l8.105-8.105
			C54.172,20.581,54.172,19.371,53.426,18.625z"/>
	</g>
</g>
<g id="Base_16_">
	<g>
		<circle style="fill:#4D4D4D;" cx="26" cy="38.006" r="26"/>
	</g>
</g>
</svg>
