<?xml version="1.0" encoding="iso-8859-1"?>
<!DOCTYPE svg PUBLIC "-//W3C//DTD SVG 1.1//EN" "http://www.w3.org/Graphics/SVG/1.1/DTD/svg11.dtd">
<svg version="1.1" id="Layer_1" xmlns="http://www.w3.org/2000/svg" xmlns:xlink="http://www.w3.org/1999/xlink" x="0px" y="0px"
	 width="64.021px" height="64.013px" viewBox="0 0 64.021 64.013" style="enable-background:new 0 0 64.021 64.013;"
	 xml:space="preserve">
<g id="Legs">
	<g>
		<path style="fill-rule:evenodd;clip-rule:evenodd;fill:#CCCCCC;" d="M38,36.013l-6,6l-4,4v6l-6,10l4,2l14-14L38,36.013z
			 M28,26.013l-14-2l-14,14l2,4l10-6h6l4-4L28,26.013z"/>
	</g>
</g>
<g id="Flames">
	<g>
		<path style="fill:#FFCC66;" d="M10,44.013c-3.939,5.748-9.974,12.835-10,16c-0.021,2.403,1.576,4.021,4,4
			c3.217-0.027,10.011-6.031,16-10L10,44.013z"/>
	</g>
</g>
<g id="Flames_1_">
	<g>
		<path style="fill:#ED7161;" d="M16,42.013c-3.939,5.748-12,12.835-12,16c0,2.091,0.201,2,2,2c3.217,0,10.011-8.031,16-12
			L16,42.013z"/>
	</g>
</g>
<g id="Body_26_">
	<g>
		<path style="fill:#387AA7;" d="M60,0.013c-6.285,0.389-17.138,1.137-30,14c-9.461,9.461-17.761,23.219-21.652,32.348l9.367,9.367
			C26.793,51.875,40.459,43.554,50,34.013c12.779-12.779,13.507-23.669,14-30C64.22,1.187,62.614-0.149,60,0.013z"/>
	</g>
</g>
<g id="Body_27_">
	<g>
		<path style="fill:#48A0DC;" d="M60,0.013c-6.285,0.389-17.138,1.137-30,14c-7.724,7.724-14.664,18.307-19.078,26.905
			l12.235,12.235C31.703,48.751,42.222,41.792,50,34.013c12.779-12.779,13.507-23.669,14-30C64.22,1.187,62.614-0.149,60,0.013z"/>
	</g>
</g>
<g id="Glass_8_">
	<g>
		<circle style="fill:#4D4D4D;" cx="48" cy="16.013" r="8"/>
	</g>
</g>
</svg>
