<?xml version="1.0" encoding="iso-8859-1"?>
<!DOCTYPE svg PUBLIC "-//W3C//DTD SVG 1.1//EN" "http://www.w3.org/Graphics/SVG/1.1/DTD/svg11.dtd">
<svg version="1.1" id="Layer_1" xmlns="http://www.w3.org/2000/svg" xmlns:xlink="http://www.w3.org/1999/xlink" x="0px" y="0px"
	 width="63.982px" height="56px" viewBox="0 0 63.982 56" style="enable-background:new 0 0 63.982 56;" xml:space="preserve">
<g id="Send">
	<g>
		<path style="fill-rule:evenodd;clip-rule:evenodd;fill:#CCCCCC;" d="M56.916,0.939C54.428,1.999,26.12,13.566,2.995,22.963
			C1.118,23.727,0,25.31,0,26.969c0,1.658,1.418,2.768,2.995,3.002c1.259,0.188,15.081,2.002,15.081,2.002L22,52.001l11.94-10.014
			c0,0,10.362,10.393,10.993,11.009c1.1,1.075,2.87,3.004,3.994,3.004c1.654,0,3.188-1.982,3.994-5.005
			c0.723-2.711,5.178-22.244,10.984-48.054C64.511,0.256,61.473-1,56.916,0.939z M26,34.001L25,48l-4-18l28-18L26,34.001z"/>
	</g>
</g>
<g id="Send_1_">
	<g>
		<polygon style="fill:#999999;" points="26,34.001 22,52.002 34,42.001 		"/>
	</g>
</g>
</svg>
