<?xml version="1.0" encoding="iso-8859-1"?>
<!-- Generator: Adobe Illustrator 16.0.0, SVG Export Plug-In . SVG Version: 6.00 Build 0)  -->
<!DOCTYPE svg PUBLIC "-//W3C//DTD SVG 1.1//EN" "http://www.w3.org/Graphics/SVG/1.1/DTD/svg11.dtd">
<svg version="1.1" id="Layer_1" xmlns="http://www.w3.org/2000/svg" xmlns:xlink="http://www.w3.org/1999/xlink" x="0px" y="0px"
	 width="64px" height="64.001px" viewBox="0 0 64 64.001" style="enable-background:new 0 0 64 64.001;" xml:space="preserve">
<g id="Wick_2_">
	<g>
		<path style="fill:#999999;" d="M14.242,42.236c-1.086,1.086-2.586,1.757-4.242,1.757c-3.313,0-6-2.687-6-5.999
			c0-6.269,6-6.466,6-13.998c0-1.621,0-3.999,0-3.999H6c0,0,0,1.362,0,3.999c0,5.394-6,5.97-6,13.998c0,5.521,4.478,9.999,10,9.999
			c2.762,0,5.262-1.119,7.071-2.93L14.242,42.236z"/>
	</g>
</g>
<g id="Fire_4_">
	<g>
		<path style="fill-rule:evenodd;clip-rule:evenodd;fill:#FFCC66;" d="M16,21.996c0-0.722-1.539-1.347-3.826-1.698
			c1.442-1.945,2.132-3.55,1.604-4.078c-0.528-0.529-2.133,0.161-4.078,1.603C9.347,15.535,8.721,13.997,8,13.997
			s-1.347,1.538-1.699,3.825c-1.945-1.441-3.55-2.132-4.078-1.603c-0.528,0.528,0.162,2.133,1.604,4.078
			C1.539,20.649,0,21.274,0,21.996c0,0.72,1.539,1.347,3.826,1.699c-1.442,1.944-2.132,3.549-1.604,4.077s2.133-0.161,4.078-1.604
			C6.653,28.456,7.279,29.995,8,29.995s1.347-1.539,1.699-3.826c1.945,1.442,3.55,2.132,4.078,1.604s-0.161-2.132-1.604-4.077
			C14.461,23.343,16,22.716,16,21.996z"/>
	</g>
</g>
<g id="Stick">
	<g>
		<path style="fill:#4D4D4D;" d="M53.435,20.561c-0.767-0.765-2.01-0.765-2.776,0L10.565,60.649c-0.767,0.766-0.767,2.01,0,2.775
			c0.767,0.768,2.01,0.768,2.776,0l40.093-40.087C54.201,22.57,54.201,21.328,53.435,20.561z"/>
	</g>
</g>
<g id="Body_9_">
	<g>
		<path style="fill:#ED7161;" d="M51.395,22.664L41.269,12.54c-0.78-0.779-2.045-0.779-2.825,0l-25.9,25.897
			c-0.779,0.779-0.779,2.045,0,2.826l10.126,10.124c0.78,0.779,2.045,0.779,2.824,0l25.901-25.899
			C52.174,24.709,52.174,23.445,51.395,22.664z"/>
	</g>
</g>
<g id="Lines_4_">
	<g>
		<path style="fill:#FFFFFF;" d="M12.543,38.438c-0.779,0.779-0.779,2.045,0,2.826l2.748,2.745l14.917,2.664l5.091-5.091
			l-21.977-3.924L12.543,38.438z M51.395,22.664l-2.686-2.685l-15.023-2.682l-5.09,5.091l21.976,3.924l0.823-0.824
			C52.174,24.709,52.174,23.445,51.395,22.664z M18.413,32.569l21.977,3.923l5.091-5.091l-21.977-3.924L18.413,32.569z"/>
	</g>
</g>
<g id="Head_9_">
	<g>
		<path style="fill:#48A0DC;" d="M63.414,0.585c-0.496-0.498-1.221-0.693-1.898-0.527l-24,5.999
			c-0.699,0.176-1.25,0.711-1.442,1.406S36.077,8.9,36.587,9.41l17.999,17.997c0.381,0.381,0.891,0.586,1.414,0.586
			c0.178,0,0.357-0.021,0.533-0.072c0.695-0.191,1.232-0.743,1.406-1.44l6-23.997C64.111,1.802,63.91,1.081,63.414,0.585z"/>
	</g>
</g>
</svg>
