<?xml version="1.0" encoding="iso-8859-1"?>
<!-- Generator: Adobe Illustrator 16.0.0, SVG Export Plug-In . SVG Version: 6.00 Build 0)  -->
<!DOCTYPE svg PUBLIC "-//W3C//DTD SVG 1.1//EN" "http://www.w3.org/Graphics/SVG/1.1/DTD/svg11.dtd">
<svg version="1.1" id="Layer_1" xmlns="http://www.w3.org/2000/svg" xmlns:xlink="http://www.w3.org/1999/xlink" x="0px" y="0px"
	 width="64px" height="64px" viewBox="0 0 64 64" style="enable-background:new 0 0 64 64;" xml:space="preserve">
<g id="Line_6_">
	<g>
		<path style="fill:#CCCCCC;" d="M60,54H4c-2.209,0-4,1.79-4,4c0,2.209,1.791,4,4,4h56c2.209,0,4-1.791,4-4
			C64,55.79,62.209,54,60,54z"/>
	</g>
</g>
<g id="Dot_1_">
	<g>
		<circle style="fill:#4D4D4D;" cx="32" cy="58" r="6"/>
	</g>
</g>
<g id="Shield_1_">
	<g>
		<path style="fill:#88C057;" d="M43.667,6.856C38.925,6.856,34.749,3.533,32,0c-2.749,3.533-6.925,6.856-11.667,6.856
			c-3.085,0-5.949-1.786-8.333-3.429l0,24.06c0,9.489,13.308,20.511,19.875,20.511c7,0,20.126-11.021,20.125-20.511V10.285V3.428
			C49.616,5.07,46.751,6.856,43.667,6.856z"/>
	</g>
</g>
<g id="Ok">
	<g>
		<path style="fill-rule:evenodd;clip-rule:evenodd;fill:#FFFFFF;" d="M41.393,18.564c-0.788-0.79-2.066-0.79-2.854,0l-8.521,8.521
			l-4.509-4.517c-0.807-0.809-2.114-0.809-2.92,0c-0.807,0.809-0.807,2.117,0,2.926l5.841,5.851c0.208,0.208,0.45,0.361,0.708,0.462
			c0.745,0.343,1.654,0.213,2.268-0.4l9.989-9.988C42.181,20.63,42.181,19.352,41.393,18.564z"/>
	</g>
</g>
</svg>
