<?xml version="1.0" encoding="iso-8859-1"?>
<!DOCTYPE svg PUBLIC "-//W3C//DTD SVG 1.1//EN" "http://www.w3.org/Graphics/SVG/1.1/DTD/svg11.dtd">
<svg version="1.1" id="Layer_1" xmlns="http://www.w3.org/2000/svg" xmlns:xlink="http://www.w3.org/1999/xlink" x="0px" y="0px"
	 width="64px" height="64px" viewBox="0 0 64 64" style="enable-background:new 0 0 64 64;" xml:space="preserve">
<g id="Fire">
	<g>
		<path style="fill:#FFCC66;" d="M38,32c0,0,6-4,6-10c0-4-2-6-2-6s-2,8-8,8c0,0,2-3.393,2-6c0-4-4-8-4-8c0,4-2,6-2,6s-4-4-4-8
			c0-6,2-8,2-8s-8,2-8,10c0,4,2,8,2,10c0,4-2,8-4,8s-2-2-2-4c0-4,2-6,2-6s-6,2-6,11.999C12,34,14,46,28,46c16,0,18-12,18-20
			C46,26,42,32,38,32z"/>
	</g>
</g>
<g id="Cement">
	<g>
		<path style="fill-rule:evenodd;clip-rule:evenodd;fill:#E6E6E6;" d="M62,36h-6c1.104,0,2-0.896,2-2s-0.896-2-2-2H36
			c-1.104,0-2,0.896-2,2s0.896,2,2,2H8v12c-1.104,0-2,0.896-2,2s0.896,2,2,2v12h48V52c1.104,0,2-0.896,2-2s-0.896-2-2-2h6V36z"/>
	</g>
</g>
<g id="Bricks">
	<g>
		<path style="fill-rule:evenodd;clip-rule:evenodd;fill:#4D4D4D;" d="M28,52H8c-1.104,0-2,0.895-2,1.999v8C6,63.104,6.896,64,8,64
			h20c1.104,0,2-0.896,2-2.001v-8C30,52.895,29.104,52,28,52z M56,52H36c-1.105,0-2,0.895-2,1.999v8C34,63.104,34.895,64,36,64h20
			c1.104,0,2-0.896,2-2.001v-8C58,52.895,57.104,52,56,52z M16,45.999v-8C16,36.895,15.104,36,14,36H2c-1.104,0-2,0.895-2,1.999v8
			C0,47.104,0.896,48,2,48h12C15.104,48,16,47.104,16,45.999z M22,48h20c1.104,0,2-0.896,2-2.001v-8C44,36.895,43.104,36,42,36H22
			c-1.104,0-2,0.895-2,1.999v8C20,47.104,20.896,48,22,48z M36,32h20c1.104,0,2-0.896,2-2.001v-8C58,20.895,57.104,20,56,20H36
			c-1.104,0-2,0.895-2,1.999v8C34,31.104,34.896,32,36,32z M62,36H50c-1.104,0-2,0.895-2,1.999v8C48,47.104,48.896,48,50,48h12
			c1.104,0,2-0.896,2-2.001v-8C64,36.895,63.104,36,62,36z"/>
	</g>
</g>
</svg>
