<?xml version="1.0" encoding="iso-8859-1"?>
<!-- Generator: Adobe Illustrator 16.0.0, SVG Export Plug-In . SVG Version: 6.00 Build 0)  -->
<!DOCTYPE svg PUBLIC "-//W3C//DTD SVG 1.1//EN" "http://www.w3.org/Graphics/SVG/1.1/DTD/svg11.dtd">
<svg version="1.1" id="Layer_1" xmlns="http://www.w3.org/2000/svg" xmlns:xlink="http://www.w3.org/1999/xlink" x="0px" y="0px"
	 width="64px" height="60px" viewBox="0 0 64 60" style="enable-background:new 0 0 64 60;" xml:space="preserve">
<g id="Line_7_">
	<g>
		<path style="fill:#CCCCCC;" d="M60,52H4c-2.209,0-4,1.79-4,4c0,2.209,1.791,4,4,4h56c2.209,0,4-1.791,4-4
			C64,53.79,62.209,52,60,52z"/>
	</g>
</g>
<g id="Line_2_">
	<g>
		<path style="fill:#4D4D4D;" d="M42,52H22c-2.209,0-4,1.79-4,4c0,2.209,1.791,4,4,4h20c2.209,0,4-1.791,4-4
			C46,53.79,44.209,52,42,52z"/>
	</g>
</g>
<g id="Leg_5_">
	<g>
		<rect x="28" y="43.999" style="fill:#808080;" width="8" height="8.001"/>
	</g>
</g>
<g id="Frame_24_">
	<g>
		<path style="fill:#48A0DC;" d="M60,0H4C1.791,0,0,1.79,0,4v35.999c0,2.21,1.791,4,4,4h56c2.209,0,4-1.79,4-4V4
			C64,1.79,62.209,0,60,0z"/>
	</g>
</g>
<g id="Direction">
	<g>
		<path style="fill-rule:evenodd;clip-rule:evenodd;fill:#FFFFFF;" d="M55.834,21.324c-0.1-0.294-0.246-0.574-0.479-0.81
			l-5.847-5.865c-0.807-0.81-2.114-0.81-2.922,0s-0.808,2.123,0,2.933l2.409,2.417h-8.995c-1.105,0-2.001,0.896-2.001,2
			s0.896,2,2.001,2h9.09l-2.5,2.491c-0.811,0.807-0.811,2.114,0,2.92c0.809,0.807,2.121,0.807,2.93,0l5.861-5.841
			C55.992,22.963,56.142,22.072,55.834,21.324z M32.001,9.999c0,0-0.001,0-0.001,0s-0.001,0-0.001,0
			c-1.105,0-1.999,0.896-1.999,2.001v20c0,1.104,0.894,1.999,1.999,1.999c0,0,0.001,0,0.001,0s0.001,0,0.001,0c1.105,0,2-0.896,2-2
			v-20C34.001,10.895,33.106,9.999,32.001,9.999z M23.998,20h-9.089l2.5-2.491c0.81-0.807,0.81-2.114,0-2.921
			c-0.809-0.807-2.122-0.807-2.931,0l-5.86,5.842c-0.61,0.606-0.76,1.497-0.451,2.244c0.1,0.295,0.245,0.575,0.479,0.81l5.846,5.866
			c0.808,0.81,2.115,0.81,2.922,0c0.808-0.81,0.808-2.123,0-2.933l-2.409-2.418h8.995c1.105,0,2.001-0.895,2.001-1.999
			C25.999,20.895,25.104,20,23.998,20z"/>
	</g>
</g>
</svg>
