<?xml version="1.0" encoding="iso-8859-1"?>
<!DOCTYPE svg PUBLIC "-//W3C//DTD SVG 1.1//EN" "http://www.w3.org/Graphics/SVG/1.1/DTD/svg11.dtd">
<svg version="1.1" id="Layer_1" xmlns="http://www.w3.org/2000/svg" xmlns:xlink="http://www.w3.org/1999/xlink" x="0px" y="0px"
	 width="64px" height="64px" viewBox="0 0 64 64" style="enable-background:new 0 0 64 64;" xml:space="preserve">
<g id="Pumpkin_2_">
	<g>
		<path style="fill:#4D4D4D;" d="M38,12c-2.069,0-4.071,1.543-6,2c-1.93-0.457-3.932-2-6-2C11.641,12,0,23.641,0,38s11.641,26,26,26
			c2.068,0,4.07-1.545,6-2c1.929,0.455,3.931,2,6,2c14.359,0,26-11.641,26-26S52.359,12,38,12z"/>
	</g>
</g>
<g id="Stripes_6_">
	<g>
		<path style="fill-rule:evenodd;clip-rule:evenodd;fill:#666666;" d="M16,38c0-12.436,5.376-22.817,12.556-25.38
			c-0.23-0.095-0.462-0.181-0.694-0.26C15.474,14.347,6,25.053,6,38s9.474,23.652,21.86,25.64c0.232-0.079,0.464-0.165,0.694-0.26
			C21.376,60.816,16,50.436,16,38z M33.874,13.312C33.242,13.594,32.617,13.854,32,14c-0.617-0.146-1.242-0.406-1.874-0.688
			C27.73,16.725,26,26.479,26,38c0,11.52,1.73,21.274,4.126,24.688C30.758,62.405,31.383,62.146,32,62
			c0.617,0.146,1.242,0.405,1.874,0.688C36.27,59.275,38,49.521,38,38C38,26.479,36.269,16.724,33.874,13.312z M36.139,12.36
			c-0.232,0.079-0.464,0.165-0.694,0.26C42.623,15.183,48,25.564,48,38s-5.377,22.816-12.555,25.38
			c0.23,0.095,0.462,0.181,0.694,0.26C48.526,61.653,58,50.947,58,38S48.526,14.347,36.139,12.36z"/>
	</g>
</g>
<g id="Tail_2_">
	<g>
		<path style="fill-rule:evenodd;clip-rule:evenodd;fill:#638C3F;" d="M34,0c-3.313,0-6,2.686-6,6c0,3.313,2.125,5.875,0,8
			c0,1.105,1.791,2,4,2s4-0.895,4-2c-1.125-1.125-4-6.896-4-8c0-1.105,0.896-2,2-2s2,0.895,2,2c0,1.104,0.896,2,2,2s2-0.896,2-2
			C40,2.686,37.313,0,34,0z"/>
	</g>
</g>
<g id="Face_2_">
	<g>
		<path style="fill-rule:evenodd;clip-rule:evenodd;fill:#FF8833;" d="M52,40c-0.553,0-1.053,0.225-1.414,0.586L48,43.172
			l-2.586-2.586C45.052,40.225,44.552,40,44,40c-0.553,0-1.053,0.225-1.414,0.586L39,44.172l-1.586-1.586
			C37.052,42.223,36.552,42,36,42c-0.553,0-1.053,0.223-1.414,0.586L32,45.172l-2.586-2.586C29.052,42.223,28.552,42,28,42
			c-0.553,0-1.053,0.223-1.414,0.586L25,44.172l-3.586-3.586C21.052,40.225,20.552,40,20,40c-0.553,0-1.053,0.225-1.414,0.586
			L16,43.172l-2.586-2.586C13.052,40.225,12.552,40,12,40c-1.104,0-2,0.895-2,2c0,0.553,0.224,1.051,0.586,1.414l4,4l4,4
			C18.947,51.775,19.447,52,20,52c0.552,0,1.052-0.225,1.414-0.586L25,47.828l5.586,5.586C30.947,53.775,31.447,54,32,54
			c0.552,0,1.052-0.225,1.414-0.586L39,47.828l3.586,3.586C42.947,51.775,43.447,52,44,52c0.552,0,1.052-0.225,1.414-0.586l4-4l4-4
			C53.775,43.051,54,42.553,54,42C54,40.895,53.104,40,52,40z M38,36c1.16,0,5.945-2,10-2c1.242,0,2-1.033,2-2s-3.993-8-6-8
			c-2.008,0-8,7.211-8,10C36,34.967,36.84,36,38,36z M16,34c4.054,0,8.84,2,10,2s2-1.033,2-2c0-2.789-5.992-10-8-10s-6,7.033-6,8
			S14.757,34,16,34z"/>
	</g>
</g>
</svg>
