<?xml version="1.0" encoding="iso-8859-1"?>
<!DOCTYPE svg PUBLIC "-//W3C//DTD SVG 1.1//EN" "http://www.w3.org/Graphics/SVG/1.1/DTD/svg11.dtd">
<svg version="1.1" id="Layer_1" xmlns="http://www.w3.org/2000/svg" xmlns:xlink="http://www.w3.org/1999/xlink" x="0px" y="0px"
	 width="60px" height="64px" viewBox="0 0 60 64" style="enable-background:new 0 0 60 64;" xml:space="preserve">
<g id="Base_24_">
	<g>
		<path style="fill:#999999;" d="M58,52H2c-1.105,0-2,0.895-2,2v8c0,1.104,0.895,2,2,2h56c1.104,0,2-0.896,2-2v-8
			C60,52.895,59.104,52,58,52z"/>
	</g>
</g>
<g id="Stone_2_">
	<g>
		<path style="fill-rule:evenodd;clip-rule:evenodd;fill:#CCCCCC;" d="M52,8h-4.146C43.459,3.101,37.1,0,30,0S16.541,3.101,12.146,8
			H8c-2.209,0-4,1.791-4,4v40h52V12C56,9.791,54.209,8,52,8z"/>
	</g>
</g>
<g id="Rip_2_">
	<g>
		<path style="fill-rule:evenodd;clip-rule:evenodd;fill:#999999;" d="M24,34c0-2.609-1.674-4.807-4-5.633V28h-6
			c-1.105,0-2,0.895-2,2v12c0,1.104,0.895,2,2,2s2-0.896,2-2v-2h1.285l3.43,3.43c0.75,0.75,1.965,0.75,2.715,0s0.75-1.965,0-2.715
			l-1.896-1.897C23.025,37.731,24,35.986,24,34z M18,36h-2v-4h2c1.104,0,2,0.895,2,2S19.104,36,18,36z M44,28.367V28h-6
			c-1.105,0-2,0.895-2,2v12c0,1.104,0.895,2,2,2s2-0.896,2-2v-2h4v-0.367c2.326-0.827,4-3.025,4-5.633
			C48,31.391,46.326,29.193,44,28.367z M42,36h-2v-4h2c1.105,0,2,0.895,2,2S43.105,36,42,36z M30,28c-1.105,0-2,0.895-2,2v12
			c0,1.104,0.895,2,2,2s2-0.896,2-2V30C32,28.895,31.105,28,30,28z M34,12h-2v-2c0-1.105-0.895-2-2-2s-2,0.895-2,2v2h-2
			c-1.105,0-2,0.895-2,2c0,1.104,0.895,2,2,2h2v6c0,1.104,0.895,2,2,2s2-0.896,2-2v-6h2c1.104,0,2-0.896,2-2
			C36,12.895,35.104,12,34,12z"/>
	</g>
</g>
</svg>
