<?xml version="1.0" encoding="iso-8859-1"?>
<!DOCTYPE svg PUBLIC "-//W3C//DTD SVG 1.1//EN" "http://www.w3.org/Graphics/SVG/1.1/DTD/svg11.dtd">
<svg version="1.1" id="Layer_1" xmlns="http://www.w3.org/2000/svg" xmlns:xlink="http://www.w3.org/1999/xlink" x="0px" y="0px"
	 width="52px" height="64px" viewBox="0 0 52 64" style="enable-background:new 0 0 52 64;" xml:space="preserve">
<g id="Head_12_">
	<g>
		<path style="fill:#E6E6E6;" d="M26,0C11.641,0,0,6.535,0,22c0,14.725,4,17.813,4,22c0,2.402,8,2,8,6c0,6-0.762,14,14,14
			s14-8,14-14c0-4,8-3.598,8-6c0-4.188,4-7.275,4-22C52,6.535,40.359,0,26,0z"/>
	</g>
</g>
<g id="Eyes_3_">
	<g>
		<path style="fill-rule:evenodd;clip-rule:evenodd;fill:#333333;" d="M34,20c-4.418,0-6,3.582-6,8s3.582,6,8,6s8-1.582,8-6
			S38.418,20,34,20z M18,20c-4.418,0-10,3.582-10,8s3.582,6,8,6s8-1.582,8-6S22.418,20,18,20z"/>
	</g>
</g>
<g id="Nose_2_">
	<g>
		<path style="fill:#333333;" d="M26,36c-1.105,0-4,4.895-4,6c0,1.104,2.895,2,4,2s4-0.896,4-2C30,40.895,27.105,36,26,36z"/>
	</g>
</g>
<g id="Teeth_1_">
	<g>
		<path style="fill-rule:evenodd;clip-rule:evenodd;fill:#B3B3B3;" d="M14,48c-1.105,0-2,0.895-2,2v2c0,1.104,0.895,2,2,2
			s2-0.896,2-2v-2C16,48.895,15.105,48,14,48z M22,48c-1.105,0-2,0.895-2,2v2c0,1.104,0.895,2,2,2s2-0.896,2-2v-2
			C24,48.895,23.105,48,22,48z M30,48c-1.105,0-2,0.895-2,2v2c0,1.104,0.895,2,2,2c1.104,0,2-0.896,2-2v-2
			C32,48.895,31.104,48,30,48z M38,48c-1.105,0-2,0.895-2,2v2c0,1.104,0.895,2,2,2s2-0.896,2-2v-2C40,48.895,39.105,48,38,48z
			 M18,50c-1.105,0-2,0.895-2,2v2c0,1.104,0.895,2,2,2s2-0.896,2-2v-2C20,50.895,19.105,50,18,50z M26,50c-1.105,0-2,0.895-2,2v2
			c0,1.104,0.895,2,2,2s2-0.896,2-2v-2C28,50.895,27.105,50,26,50z M34,50c-1.105,0-2,0.895-2,2v2c0,1.104,0.895,2,2,2s2-0.896,2-2
			v-2C36,50.895,35.105,50,34,50z"/>
	</g>
</g>
</svg>
