<?xml version="1.0" encoding="iso-8859-1"?>
<!DOCTYPE svg PUBLIC "-//W3C//DTD SVG 1.1//EN" "http://www.w3.org/Graphics/SVG/1.1/DTD/svg11.dtd">
<svg version="1.1" id="Layer_1" xmlns="http://www.w3.org/2000/svg" xmlns:xlink="http://www.w3.org/1999/xlink" x="0px" y="0px"
	 width="64.006px" height="63.983px" viewBox="0 0 64.006 63.983" style="enable-background:new 0 0 64.006 63.983;"
	 xml:space="preserve">
<g id="Bar_50_">
	<g>
		<path style="fill:#CCCCCC;" d="M60.307,0.003C60.303,0.003,60.3,0,60.296,0H3.71C3.706,0,3.703,0.003,3.699,0.003
			C1.655,0.008,0,1.613,0,3.594v6.39v50.291c0,2.048,1.661,3.709,3.71,3.709h56.586c2.049,0,3.71-1.661,3.71-3.709V9.983v-6.39
			C64.006,1.613,62.351,0.008,60.307,0.003z"/>
	</g>
</g>
<g id="Container_49_">
	<g>
		<path style="fill:#FFFFFF;" d="M58.006,11.993h-52h-2v2v12.001v31.999c0,1.104,0.896,2,2,2h52c1.104,0,2-0.896,2-2V25.994V13.993
			v-2H58.006z"/>
	</g>
</g>
<g id="Mouth_8_">
	<g>
		<path style="fill-rule:evenodd;clip-rule:evenodd;fill:#48A0DC;" d="M44.006,37.993h-2h-22c-1.104,0-2,0.896-2,2
			c0,1.105,0.896,2.001,2,2.001h12v3c0,3.864,3.134,6.999,7,6.999s7-3.135,7-6.999v-7.001H44.006z M39.006,47.992
			c-1.657,0-3-1.341-3-2.998v-3h6v3C42.006,46.651,40.662,47.992,39.006,47.992z"/>
	</g>
</g>
<g id="Eye_16_">
	<g>
		<path style="fill-rule:evenodd;clip-rule:evenodd;fill:#48A0DC;" d="M21.574,27.028l1.864-1.864c0.721-0.719,0.721-1.884,0-2.603
			c-0.718-0.72-1.883-0.72-2.603,0l-1.864,1.864l-1.809-1.809c-0.717-0.717-1.878-0.717-2.593,0c-0.717,0.715-0.717,1.876,0,2.593
			l1.809,1.809l-1.807,1.807c-0.72,0.719-0.72,1.885,0,2.604c0.718,0.719,1.884,0.719,2.604,0l1.806-1.807l1.806,1.807
			c0.717,0.717,1.877,0.717,2.594,0c0.716-0.717,0.716-1.878,0-2.594L21.574,27.028z"/>
	</g>
</g>
<g id="Eye_17_">
	<g>
		<path style="fill-rule:evenodd;clip-rule:evenodd;fill:#48A0DC;" d="M47.574,27.028l1.864-1.864c0.721-0.719,0.721-1.884,0-2.603
			c-0.718-0.72-1.883-0.72-2.603,0l-1.864,1.864l-1.809-1.809c-0.717-0.717-1.878-0.717-2.593,0c-0.717,0.715-0.717,1.876,0,2.593
			l1.809,1.809l-1.807,1.807c-0.72,0.719-0.72,1.885,0,2.604c0.718,0.719,1.884,0.719,2.604,0l1.806-1.807l1.806,1.807
			c0.717,0.717,1.877,0.717,2.594,0c0.716-0.717,0.716-1.878,0-2.594L47.574,27.028z"/>
	</g>
</g>
<g id="Btns_46_">
	<g>
		<path style="fill-rule:evenodd;clip-rule:evenodd;fill:#FFFFFF;" d="M46.006,3.993c-0.007,0-0.013,0.002-0.02,0.002H6.006
			c-1.104,0-2,0.896-2,2s0.896,2,2,2h40c1.104,0,2-0.896,2-2c0-0.001,0-0.001,0-0.001C48.006,4.889,47.11,3.993,46.006,3.993z
			 M52.006,3.993c-1.104,0-2,0.896-2,2.001c0,1.104,0.896,2,2,2s2-0.896,2-2C54.006,4.889,53.11,3.993,52.006,3.993z M58.006,3.993
			c-1.104,0-2,0.896-2,2.001c0,1.104,0.896,2,2,2s2-0.896,2-2C60.006,4.889,59.11,3.993,58.006,3.993z"/>
	</g>
</g>
</svg>
