<?xml version="1.0" encoding="iso-8859-1"?>
<!DOCTYPE svg PUBLIC "-//W3C//DTD SVG 1.1//EN" "http://www.w3.org/Graphics/SVG/1.1/DTD/svg11.dtd">
<svg version="1.1" id="Layer_1" xmlns="http://www.w3.org/2000/svg" xmlns:xlink="http://www.w3.org/1999/xlink" x="0px" y="0px"
	 width="63.968px" height="64.033px" viewBox="0 0 63.968 64.033" style="enable-background:new 0 0 63.968 64.033;"
	 xml:space="preserve">
<g id="Tag_1_">
	<g>
		<path style="fill:#48A0DC;" d="M52,8.033c0,0-13.177,0-16,0c-2,0-4,0-6,2L2,38.034c0,0-2,1.999-2,3.999s2,4.001,2,4.001l16,16
			c0,0,2,1.999,4,1.999s4-1.999,4-1.999l28-28.001c1.934-1.933,2-4.05,2-6c0-3.581,0-16,0-16C56,9.824,54.209,8.033,52,8.033z"/>
	</g>
</g>
<g id="Staple_1_">
	<g>
		<circle style="fill:#387AA7;" cx="44" cy="20.033" r="8"/>
	</g>
</g>
<g id="Hole_1_">
	<g>
		<circle style="fill:#FFFFFF;" cx="44" cy="20.033" r="4"/>
	</g>
</g>
<g id="Rope">
	<g>
		<path style="fill:#4D4D4D;" d="M63.355,0.612c-0.816-0.816-2.14-0.816-2.955,0L42.578,18.434c-0.815,0.816-0.815,2.14,0,2.956
			c0.816,0.815,2.14,0.815,2.956,0L63.355,3.567C64.172,2.751,64.172,1.429,63.355,0.612z"/>
	</g>
</g>
<g id="Label">
	<g>
		<path style="fill:#FFFFFF;" d="M33.383,43.144L20.827,30.588c-0.788-0.789-2.066-0.789-2.854,0l-9.419,9.419
			c-0.788,0.788-0.788,2.065,0,2.854l12.556,12.555c0.788,0.788,2.066,0.788,2.854,0l9.419-9.419
			C34.171,45.209,34.171,43.932,33.383,43.144z"/>
	</g>
</g>
</svg>
