<?xml version="1.0" encoding="iso-8859-1"?>
<!DOCTYPE svg PUBLIC "-//W3C//DTD SVG 1.1//EN" "http://www.w3.org/Graphics/SVG/1.1/DTD/svg11.dtd">
<svg version="1.1" id="Layer_1" xmlns="http://www.w3.org/2000/svg" xmlns:xlink="http://www.w3.org/1999/xlink" x="0px" y="0px"
	 width="66px" height="64px" viewBox="0 0 66 64" style="enable-background:new 0 0 66 64;" xml:space="preserve">
<g id="Cloud_29_">
	<g>
		<path style="fill-rule:evenodd;clip-rule:evenodd;fill:#808080;" d="M34.25,0c-4.545,0-8.508,2.502-10.659,6.221
			C22.634,5.827,21.594,5.6,20.5,5.6c-3.601,0-6.631,2.364-7.757,5.641c-0.166-0.011-0.325-0.041-0.493-0.041
			c-4.556,0-8.25,3.762-8.25,8.4c0,1.933,0.646,3.708,1.725,5.126c2.155-1.586,4.777-2.563,7.625-2.693
			C15.592,17.289,20.406,14,26,14c1.271,0,2.497,0.185,3.668,0.502c3.408-4.818,8.881-8.073,15.145-8.442
			C42.64,2.431,38.729,0,34.25,0z"/>
	</g>
</g>
<g id="Cloud_30_">
	<g>
		<path style="fill-rule:evenodd;clip-rule:evenodd;fill:#999999;" d="M62.426,37.337C63.43,35.095,64,32.616,64,30
			c0-9.941-8.06-18.001-18-18.001c-6.608,0-12.37,3.572-15.5,8.882C29.109,20.317,27.592,20,26,20
			c-5.235,0-9.676,3.358-11.315,8.034C14.457,28.021,14.23,28,14,28C7.372,28,2,33.372,2,39.999c0,6.628,5.373,12,12,12h44
			c4.418,0,8-3.581,8-7.999C66,41.219,64.58,38.771,62.426,37.337z"/>
	</g>
</g>
<g id="Lightning_5_">
	<g>
		<polygon style="fill:#FFCC66;" points="44,44 38,44 42.526,26 24,48 30,48 28,64 		"/>
	</g>
</g>
</svg>
