<?xml version="1.0" encoding="UTF-8" standalone="no"?>
<svg
   viewBox="0 0 24.024252 22.238008"
   xmlns="http://www.w3.org/2000/svg">
  <path
     d="m 22.641489,13.498031 -10.65,7.74 -10.6500004,-7.74 a 0.84,0.84 0 0 1 -0.3,-0.94 l 1.22,-3.7799998 2.44,-7.51 a 0.42,0.42 0 0 1 0.11,-0.16 0.43,0.43 0 0 1 0.58,0 0.42,0.42 0 0 1 0.11,0.18 l 2.44,7.49 h 8.1000004 l 2.44,-7.51 a 0.42,0.42 0 0 1 0.11,-0.16 0.43,0.43 0 0 1 0.58,0 0.42,0.42 0 0 1 0.11,0.18 l 2.44,7.51 1.27,3.7599998 a 0.84,0.84 0 0 1 -0.35,0.94 z"
     id="path893" />
</svg>
