<?xml version="1.0" encoding="UTF-8" standalone="no"?>
<svg
    viewBox="0 0 24.024252 22.225122"
    version="1.1"
    xmlns="http://www.w3.org/2000/svg">
    <path
        d="M 4.7832031,0.0390625 C 4.3434128,0.14104286 3.9490679,0.43777026 3.7714844,0.88867188 A 1.0001,1.0001 0 0 0 3.75,0.9453125 L 1.3105469,8.4570313 0.09179687,12.232422 C -0.15659193,12.984924 0.11161408,13.821527 0.75,14.291016 a 1.0001,1.0001 0 0 0 0.003906,0.0039 L 11.404297,22.033203 a 1.0001,1.0001 0 0 0 1.175781,0 l 10.648438,-7.738281 -0.04297,0.0293 c 0.678641,-0.439347 0.991669,-1.282397 0.765625,-2.058594 a 1.0001,1.0001 0 0 0 -0.01172,-0.04102 L 22.669922,8.4707031 20.238281,0.984375 C 20.168118,0.75322403 20.040879,0.54483706 19.867187,0.37695313 a 1.0001,1.0001 0 0 0 -0.02148,-0.0195313 c -0.715808,-0.65346117 -1.939755,-0.37055324 -2.294922,0.53125 A 1.0001,1.0001 0 0 0 17.53125,0.9453125 L 15.314453,7.765625 H 8.6679688 L 6.4589844,0.984375 C 6.388821,0.75322403 6.2596288,0.54483706 6.0859375,0.37695313 A 1.0001,1.0001 0 0 0 6.0664062,0.35742188 C 5.7085022,0.03069129 5.2229934,-0.06291786 4.7832031,0.0390625 Z m 0.3164063,3.2285156 1.890625,5.8066407 A 1.0001,1.0001 0 0 0 7.9414062,9.765625 H 16.041016 A 1.0001,1.0001 0 0 0 16.992187,9.0742188 L 18.876953,3.2695313 20.769531,9.09375 a 1.0001,1.0001 0 0 0 0.0039,0.011719 l 1.220704,3.6113282 -10.001953,7.271484 -9.9667974,-7.242187 1.1875,-3.6738284 z"
    />
</svg>
